<?xml version="1.0" standalone="no"?>
<!DOCTYPE svg PUBLIC "-//W3C//DTD SVG 20010904//EN"
 "http://www.w3.org/TR/2001/REC-SVG-20010904/DTD/svg10.dtd">
<svg version="1.0" xmlns="http://www.w3.org/2000/svg"
 width="1280.000000pt" height="1280.000000pt" viewBox="0 0 1280.000000 1280.000000"
 preserveAspectRatio="xMidYMid meet">
<g transform="translate(0.000000,1280.000000) scale(0.100000,-0.100000)"
fill="#000000" stroke="none">
<path d="M6310 12781 c-86 -28 -139 -59 -192 -113 -45 -46 -323 -597 -3069
-6092 -2204 -4409 -3024 -6059 -3036 -6109 -16 -63 -16 -70 1 -134 47 -177
142 -272 319 -319 64 -17 70 -17 134 0 36 9 84 26 106 38 22 11 1336 884 2921
1941 1911 1275 2889 1922 2906 1922 17 0 995 -647 2906 -1922 1585 -1057 2899
-1930 2921 -1941 22 -12 70 -29 106 -38 64 -17 70 -17 134 0 177 47 272 142
319 319 17 64 17 71 1 134 -12 50 -832 1698 -3036 6110 -2831 5664 -3023 6044
-3071 6092 -56 56 -115 90 -202 115 -69 20 -97 19 -168 -3z"/>
</g>
</svg>
